<?xml version="1.0" encoding="UTF-8"?>
<svg xmlns="http://www.w3.org/2000/svg" xmlns:xlink="http://www.w3.org/1999/xlink" version="1.1" viewBox="0 0 480 480">
  <!-- Generator: Adobe Illustrator 29.5.1, SVG Export Plug-In . SVG Version: 2.1.0 Build 141)  -->
  <defs>
    <style>
      .st0 {
        fill: none;
      }

      .st1 {
        fill: url(#radial-gradient);
      }

      .st1, .st2, .st3, .st4, .st5, .st6, .st7, .st8, .st9 {
        mix-blend-mode: multiply;
      }

      .st1, .st3, .st4, .st5, .st6, .st7, .st8, .st9 {
        opacity: .5;
      }

      .st2 {
        opacity: .3;
      }

      .st10 {
        isolation: isolate;
      }

      .st3 {
        fill: url(#radial-gradient2);
      }

      .st4 {
        fill: url(#radial-gradient4);
      }

      .st5 {
        fill: url(#radial-gradient3);
      }

      .st6 {
        fill: url(#radial-gradient1);
      }

      .st11 {
        fill: #c62828;
      }

      .st7 {
        fill: url(#linear-gradient1);
      }

      .st8 {
        fill: url(#linear-gradient2);
      }

      .st12, .st13 {
        fill: #fff;
      }

      .st13 {
        opacity: 0;
      }

      .st9 {
        fill: url(#linear-gradient);
      }
    </style>
    <radialGradient id="radial-gradient" cx="165.74" cy="219.16" fx="136.59" fy="219.16" r="97.98" gradientUnits="userSpaceOnUse">
      <stop offset="0" stop-color="#000"/>
      <stop offset="1" stop-color="#fff"/>
    </radialGradient>
    <linearGradient id="linear-gradient" x1="214.27" y1="302.06" x2="190.18" y2="384.15" gradientUnits="userSpaceOnUse">
      <stop offset="0" stop-color="#000"/>
      <stop offset="1" stop-color="#fff"/>
    </linearGradient>
    <radialGradient id="radial-gradient1" cx="282.83" cy="254.22" fx="282.83" fy="254.22" r="103.11" xlink:href="#radial-gradient"/>
    <radialGradient id="radial-gradient2" cx="381.51" cy="245.94" fx="381.51" fy="245.94" r="55.14" xlink:href="#radial-gradient"/>
    <radialGradient id="radial-gradient3" cx="130.69" cy="239.6" fx="130.69" fy="239.6" r="75.23" xlink:href="#radial-gradient"/>
    <radialGradient id="radial-gradient4" cx="347.36" cy="179.16" fx="347.36" fy="179.16" r="104.47" gradientUnits="userSpaceOnUse">
      <stop offset="0" stop-color="#000"/>
      <stop offset="1" stop-color="#fff"/>
    </radialGradient>
    <linearGradient id="linear-gradient1" x1="104.91" y1="252.1" x2="116.47" y2="282.63" xlink:href="#linear-gradient"/>
    <linearGradient id="linear-gradient2" x1="300.37" y1="312.22" x2="334.39" y2="272.72" xlink:href="#linear-gradient"/>
  </defs>
  <g class="st10">
    <g id="Layer_1">
      <rect class="st13" x="34.29" y="34.29" width="411.43" height="411.43"/>
      <circle class="st12" cx="240" cy="240" r="205.71"/>
      <g id="_심벌_마크" data-name="심벌_마크">
        <g>
          <path class="st11" d="M308.21,353.59c-3.56-20.2-20.87-34.04-38.66-30.9-17.79,3.14-29.32,22.06-25.76,42.26,3.56,20.2,20.87,34.04,38.66,30.9,17.79-3.14,29.32-22.06,25.76-42.26ZM275.17,387.42c-11.4,2.01-22.78-8.52-25.43-23.52-2.64-15,4.45-28.79,15.85-30.8,11.4-2.01,22.78,8.52,25.43,23.52,2.64,15-4.45,28.79-15.85,30.8Z"/>
          <path class="st11" d="M417.73,320.02c-3.09-17.5-18.08-29.48-33.48-26.76-15.41,2.72-25.39,19.1-22.31,36.6,3.09,17.5,18.08,29.48,33.48,26.76,15.41-2.72,25.39-19.1,22.31-36.6ZM389.11,349.32c-9.87,1.74-19.73-7.38-22.02-20.37-2.29-12.99,3.85-24.93,13.73-26.68,9.87-1.74,19.73,7.38,22.02,20.37,2.29,12.99-3.85,24.93-13.73,26.68Z"/>
        </g>
        <g>
          <path class="st2" d="M308.21,353.59c-3.56-20.2-20.87-34.04-38.66-30.9-17.79,3.14-29.32,22.06-25.76,42.26,3.56,20.2,20.87,34.04,38.66,30.9,17.79-3.14,29.32-22.06,25.76-42.26ZM275.17,387.42c-11.4,2.01-22.78-8.52-25.43-23.52-2.64-15,4.45-28.79,15.85-30.8,11.4-2.01,22.78,8.52,25.43,23.52,2.64,15-4.45,28.79-15.85,30.8Z"/>
          <path class="st2" d="M417.73,320.02c-3.09-17.5-18.08-29.48-33.48-26.76-15.41,2.72-25.39,19.1-22.31,36.6,3.09,17.5,18.08,29.48,33.48,26.76,15.41-2.72,25.39-19.1,22.31-36.6ZM389.11,349.32c-9.87,1.74-19.73-7.38-22.02-20.37-2.29-12.99,3.85-24.93,13.73-26.68,9.87-1.74,19.73,7.38,22.02,20.37,2.29,12.99-3.85,24.93-13.73,26.68Z"/>
        </g>
        <g>
          <path class="st11" d="M409.09,186.67c-18.35-74.27-84.99-55.51-84.99-55.51-52.5,15.35-115.77,45.63-149.15,62.5-17.76,8.97-29.99,26.04-32.82,45.73-1.4,9.78-1.88,21.03-.16,32.85.5,3.46,1.26,6.77,2.22,9.94h0s42.07-6.8,105.58-6.46l53.02-9.14c-5.18,2.02-9.66,4.38-13.54,7.02h0s-8.52,14.02-6.85,35.39c18.5-3.89,35.85-7.79,48.36-11.11,45.76-12.17,96.34-38.29,78.32-111.21ZM367.84,263.61c-26.18,5.71-53.5-17.58-61.01-52.01-7.51-34.44,7.62-66.99,33.81-72.7,26.18-5.71,53.5,17.58,61.01,52.01,7.51,34.44-7.62,66.99-33.81,72.7Z"/>
          <path class="st11" d="M302.79,266.58c-61.2,23.83-25.94,96.73-25.94,96.73h-6.11c-19.37-22.19-31.68-54.56-31.68-54.56l-143.54,33.39s-33.67,8.53-64.65,13.02c-30.98,4.49-5.39-13.47-5.39-13.47,0,0,3.59-3.59,36.36-22.45,32.77-18.86,70.93-23.34,70.93-23.34,0,0,170.01-29.31,170.01-29.31Z"/>
          <path class="st11" d="M420.33,266.58l21.13-4.92s28.84-7.49,30.8-14.33c0,0,7.25-11.22-22.25-6.13l-44.79,7.72c-2.05,4.06-4.48,7.82-7.21,11.29-9.02,20.29-29.21,36.02-29.21,36.02l-.02-.06c3.6,10.43,9.58,25.64,15.93,32.66h5.17s-20.2-51.88,29.19-61.96"/>
          <path class="st11" d="M135.22,237.31l-48.19,6.51s-21.39,1.67-50.71,13.77c-29.32,12.1,11.4,6.98,11.4,6.98l41.86-6.51,44.68-18.33"/>
          <path class="st11" d="M87.27,243.82l1.6-72.95c3.21-28.38,18.47-27.31,18.47-27.31,0,0,5.38-3.06,16.56,9.03s30.31,58.21,30.31,58.21h0c-2.68,3.47-4.98,7.22-6.86,11.2,0,0-7.14,3.57-12.14,15.3l-48.19,6.51"/>
          <path class="st11" d="M175.27,323.58l63.79-14.84s1.22,3.22,3.51,8.32c-18.58,3.64-35.62,6.85-47.23,9-6.89,1.28-13.88.35-20.07-2.49Z"/>
          <path class="st11" d="M360.37,199.85s-16.75,8.79-13.08,18.87c2.68,7.37,13.32,22.52,25.14,22.17,12.38-.36,12.82-10.58,12.82-10.58,0,0,2.67-16.02-4.71-29.83,0,0-4.06-8.42-20.17-.63Z"/>
        </g>
        <path class="st1" d="M87.27,243.82l1.6-72.95c3.21-28.38,18.47-27.31,18.47-27.31,0,0,5.38-3.06,16.56,9.03s30.31,58.21,30.31,58.21h0c-2.68,3.47-4.98,7.22-6.86,11.2,0,0-7.14,3.57-12.14,15.3l-48.19,6.51"/>
        <g>
          <path class="st11" d="M388.06,146.67c12.24-2.26,28.17-5.77,43.97-10.94,32.7-10.68,30.96-21.01-4.55-19.95l-270,8.09s-44.45-.6-91.85,20.27l-46.53,21.74s-15.85,7.59-11.34,14.75c4.51,7.16,39.75,1.67,39.75,1.67l148.92-15.08s40.66-19.54,126.52-35.73c.38-.11.76-.22,1.14-.34,0,0,37.48-10.55,63.97,15.5"/>
          <path class="st11" d="M131.95,248.02s-15.41,4.49-28.21,4.24l-14.15,5.81s-7.84,1.22-7.84,1.22c-2.51,9.48,2.62,21.74,49.46,17.83-1.34-12.02-.78-21.56.75-29.09"/>
        </g>
        <g>
          <path class="st9" d="M175.27,323.58l63.79-14.84s1.22,3.22,3.51,8.32c-18.58,3.64-35.62,6.85-47.23,9-6.89,1.28-13.88.35-20.07-2.49Z"/>
          <path class="st6" d="M302.79,266.58c-61.2,23.83-25.94,96.73-25.94,96.73h-6.11c-19.37-22.19-31.68-54.56-31.68-54.56l-143.54,33.39s-33.67,8.53-64.65,13.02c-30.98,4.49-5.39-13.47-5.39-13.47,0,0,3.59-3.59,36.36-22.45,32.77-18.86,70.93-23.34,70.93-23.34,0,0,170.01-29.31,170.01-29.31Z"/>
          <path class="st3" d="M420.33,266.58l21.13-4.92s28.84-7.49,30.8-14.33c0,0,7.25-11.22-22.25-6.13l-44.79,7.72c-2.05,4.06-4.48,7.82-7.21,11.29-9.02,20.29-29.21,36.02-29.21,36.02l-.02-.06c3.6,10.43,9.58,25.64,15.93,32.66h5.17s-20.2-51.88,29.19-61.96"/>
          <path class="st5" d="M135.22,237.31l-48.19,6.51s-21.39,1.67-50.71,13.77c-29.32,12.1,11.4,6.98,11.4,6.98l41.86-6.51,44.68-18.33"/>
          <path class="st4" d="M388.06,146.67c12.24-2.26,28.17-5.77,43.97-10.94,32.7-10.68,30.96-21.01-4.55-19.95l-270,8.09s-44.45-.6-91.85,20.27l-46.53,21.74s-15.85,7.59-11.34,14.75c4.51,7.16,39.75,1.67,39.75,1.67l148.92-15.08s40.66-19.54,126.52-35.73c.38-.11.76-.22,1.14-.34,0,0,37.48-10.55,63.97,15.5"/>
          <path class="st7" d="M131.95,248.02s-15.41,4.49-28.21,4.24l-14.15,5.81s-7.84,1.22-7.84,1.22c-2.51,9.48,2.62,21.74,49.46,17.83-1.34-12.02-.78-21.56.75-29.09"/>
          <path class="st8" d="M369.88,283.04s-34.59,14.63-67.1-16.46c-5.18,2.02-9.66,4.38-13.54,7.02h0s-8.52,14.02-6.85,35.39c18.5-3.89,35.85-7.79,48.36-11.11,13.23-3.52,26.86-8.2,39.12-14.84Z"/>
        </g>
        <rect id="_영역" data-name="영역" class="st0" y="66" width="480" height="360"/>
      </g>
    </g>
  </g>
</svg>